<?xml version="1.0" encoding="UTF-8"?>
<svg id="_레이어_2" data-name="레이어 2" xmlns="http://www.w3.org/2000/svg" viewBox="0 0 351.7 351.7">
  <defs>
    <style>
      .cls-1 {
        fill: #df0f21;
      }
    </style>
  </defs>
  <g id="_레이어_1-2" data-name="레이어 1">
    <g>
      <path class="cls-1" d="M351.42,140.94c-2.22-11.25-16.98-18.64-21.28-28.99-4.36-10.53,.81-26.18-5.46-35.54-6.31-9.43-22.77-10.61-30.77-18.61-8-7.99-9.18-24.45-18.61-30.77-9.36-6.26-25.01-1.09-35.54-5.46-10.35-4.29-17.74-19.05-28.99-21.28-10.91-2.16-23.36,8.61-34.91,8.61S151.85-1.87,140.94,.29c-11.25,2.23-18.64,16.99-28.99,21.28-10.53,4.37-26.18-.8-35.54,5.46-9.43,6.32-10.61,22.78-18.61,30.77-7.99,8-24.45,9.18-30.77,18.61-6.26,9.36-1.1,25.01-5.46,35.54-4.29,10.35-19.06,17.74-21.28,28.99-2.16,10.92,8.61,23.37,8.61,34.92S-1.87,199.86,.29,210.78c2.22,11.24,16.99,18.63,21.28,28.98,4.36,10.53-.8,26.18,5.46,35.54,6.32,9.43,22.78,10.62,30.77,18.61s9.18,24.46,18.61,30.77c9.36,6.27,25.01,1.1,35.54,5.47,10.35,4.29,17.74,19.05,28.99,21.27,10.91,2.16,23.37-8.61,34.92-8.61s24,10.77,34.91,8.61c11.25-2.22,18.64-16.98,28.99-21.27,10.53-4.37,26.18,.8,35.54-5.47,9.43-6.31,10.61-22.77,18.61-30.77s24.46-9.18,30.77-18.61c6.27-9.36,1.1-25.01,5.46-35.54,4.3-10.35,19.06-17.74,21.28-28.98,2.16-10.92-8.61-23.37-8.61-34.92s10.77-24,8.61-34.92Zm-175.56,195.31c-5.59,0-11.1-.29-16.54-.85-50.93-5.23-94.78-34.38-120.13-76.02-14.73-24.2-23.21-52.62-23.21-83.02C15.98,88.06,87.56,16.48,175.86,16.48s159.88,71.58,159.88,159.88-71.58,159.89-159.88,159.89Z"/>
      <path class="cls-1" d="M75.2,87.64c1.14,.32,2.19,.94,3.13,1.87,.94,.92,3.08,3.58,6.42,7.96,4.94,6.65,7.71,10.54,8.33,11.67,.64,1.24,1.1,1.93,1.4,2.06,.3,.13,.79-.08,1.46-.63,.9-.74,1.22-1.52,.96-2.34-.26-.82-1.39-2.71-3.38-5.68l-2.78-4.32,2.26-1.85c.68-.56,1.26-1.13,1.75-1.72,.49-.59,.87-1.13,1.12-1.63,.26-.49,.4-.95,.42-1.38,.02-.43-.08-.79-.33-1.1-.71-.87-2.72-.1-6.04,2.3l-2.22,1.44-4.63-5.08c-3.12-3.42-5.35-5.31-6.7-5.65-2.25-.29-3.46,.42-3.63,2.13-.08,.82,.73,1.47,2.45,1.96Z"/>
      <path class="cls-1" d="M93.09,116.87c-3.37,2.95-5.49,4.93-6.35,5.95-1,1.32-1.67,2.63-2.03,3.92-.35,1.3-.33,2.19,.07,2.68,.72,.73,2.13,1.91,4.21,3.53,2.42,1.73,3.9,3.16,4.45,4.28l.82,1.69,7.72-6.7c5.23-4.6,7.95-7.07,8.16-7.43,.16-.26,.14-.67-.06-1.23-.21-.56-.52-.99-.93-1.31-.42-.32-.76-.37-1.02-.15-.34,.28-1.62-1.13-3.83-4.22-.81-1.22-1.44-2.12-1.88-2.7-.44-.58-.96-1.08-1.56-1.5-.6-.42-1.05-.65-1.36-.68-.31-.03-.84,.11-1.6,.41-.76,.3-1.44,.7-2.04,1.2-.6,.49-1.53,1.25-2.77,2.26Zm5.45,.78c.48-.18,.94,0,1.37,.53,.62,.75,1.48,2.19,2.58,4.3l1.33,3.25-4.59,3.38-4.55,3.44-2.5-2.01c-2.05-1.66-2.88-3.1-2.5-4.32,.38-1.22,2.28-3.33,5.69-6.31,1.62-1.32,2.67-2.08,3.16-2.25Z"/>
      <path class="cls-1" d="M66.11,102.81c1.82,.08,3.44-.3,4.86-1.15,1.42-.84,2.16-1.92,2.22-3.23-.04-1.04-.44-1.71-1.23-2.02-.78-.3-1.62-.08-2.53,.66-1.09,.89-2.14,1.31-3.13,1.24-1,0-2.03,.21-3.07,.63-1.04,.42-1.57,.85-1.58,1.29-.22,1.5,1.27,2.36,4.46,2.57Z"/>
      <path class="cls-1" d="M87.69,112.7c-.62-.75-2.28-1.21-5-1.38l-4.11-.41-.46-3.68c-.47-2.57-.71-4.29-.73-5.16-.08-.56-.23-.96-.45-1.19-.22-.23-.62-.36-1.21-.38-.65-.1-1.24,.12-1.78,.65-.54,.54-1.43,1.66-2.67,3.37-2.01,2.77-3.63,4.67-4.87,5.69-1.06,.93-1.6,1.75-1.62,2.46-.02,.71,.52,1.15,1.6,1.33,.58,.09,1.18-.05,1.81-.44s1.56-1.21,2.79-2.47c1.11-1.03,1.88-1.7,2.33-2,.56-.46,.92-.34,1.05,.36,.3,1.45,.33,3.75,.09,6.91-.25,3.16-.62,5.32-1.11,6.48-.67,1.49-.75,2.5-.25,3.04s1.39,.28,2.67-.77c1.28-1.05,2.01-2.77,2.18-5.18,.25-2.46,.61-3.9,1.1-4.3,.57-.46,1.93-.6,4.09-.42,1.4,.18,2.53,.1,3.39-.23,1.57-.54,1.96-1.29,1.16-2.27Z"/>
      <path class="cls-1" d="M102.75,84.38c2.55,5.15,4.27,8.81,5.16,10.99,.86,2.02,2.28,5.07,4.25,9.15,1.27,2.58,2.09,4.11,2.44,4.62,.35,.5,.85,.88,1.49,1.15,.68,.24,1.11,.33,1.3,.25,.18-.07,.43-.33,.75-.77l.62-1.16-3.95-7.66c-2.57-5.19-3.84-8.07-3.81-8.64-.04-.59-1.48-3.68-4.32-9.28l-4.42-8.23-1,.45c-.78,.31-1.28,.71-1.5,1.22-.21,.44-.15,1.06,.17,1.86,.32,.8,1.26,2.82,2.84,6.06Z"/>
      <path class="cls-1" d="M122.6,119.62c-.66-.09-1.08-.07-1.26,.05-.18,.12-.36,.65-.53,1.57-.21,.83-.15,1.45,.2,1.84,.35,.39,.91,.49,1.69,.29,.82-.22,1.35-.5,1.58-.85,.23-.34,.19-.85-.11-1.51-.4-.84-.92-1.3-1.58-1.39Z"/>
      <path class="cls-1" d="M133.76,57.64c2.32,.78,4.49,5.95,6.54,15.49,.51,2.39,.9,4.14,1.19,5.25,.28,1.11,.57,2.03,.86,2.75,.29,.73,.58,1.15,.87,1.26,.29,.12,.67,.11,1.13-.03,.7-.21,1.11-1.02,1.22-2.42,.11-1.41-.11-3.04-.67-4.91-.46-1.54-.67-2.76-.64-3.66,.04-.9,.35-1.6,.93-2.11,.58-.5,1.55-.96,2.91-1.36,3.92-1.17,5.36-2.46,4.33-3.88-.58-.74-2.26-.75-5.03-.02-2.84,.7-4.44,.69-4.8-.01-.03-.09-.17-.39-.42-.9-.25-.51-.5-1.08-.74-1.72-.24-.64-.49-1.22-.75-1.76-1.08-2.27-2.2-3.71-3.35-4.33-.98-.57-1.99-.75-3.02-.55-1.03,.21-1.64,.67-1.83,1.39-.21,.67,.22,1.18,1.29,1.52Z"/>
      <path class="cls-1" d="M116.98,73.4c.7,.3,1.57,.4,2.6,.29,1.04-.1,1.97-.38,2.8-.83,1.19-.61,1.84-.73,1.95-.35,.25,.84-.36,2.85-1.82,6.03-1.46,3.18-3.04,5.86-4.72,8.04-1.05,1.23-1.66,2.1-1.81,2.6s-.03,.92,.38,1.26c1.01,.66,1.99,.67,2.94,.04s2.1-2.1,3.45-4.38c1.74-2.86,2.96-4.39,3.66-4.6s2.06,.02,4.09,.68c3.47,1.25,5.39,1.05,5.77-.58,.3-1.05-1.84-2.34-6.41-3.87l-2.01-.62,.49-4.49,.14-2.33c.1-3.08-.71-4.26-2.43-3.54-.23,.07-2.19,.83-5.87,2.29-1.76,.73-2.96,1.32-3.59,1.76-.63,.44-.91,.88-.83,1.31,.12,.57,.53,1.01,1.23,1.31Z"/>
      <path class="cls-1" d="M150.58,106.4c-.9,.12-3.01,.67-6.32,1.66-4.29,1.28-7.4,1.88-9.33,1.8-1.93-.08-3.22-.87-3.86-2.35-.48-1.28-.25-2.34,.69-3.18,.94-.84,3.24-1.93,6.9-3.28,4.09-1.63,6.36-2.69,6.82-3.18,.3-.34,.43-1.12,.37-2.32-.05-1.2-.22-2.42-.49-3.66-.27-1.24-.64-2.3-1.1-3.18-.44-.78-.95-1.19-1.54-1.21-.59-.03-2.08,.32-4.46,1.03-3.26,.82-6.56,1.93-9.9,3.34-3.03,1.41-4.88,2.38-5.53,2.91-.66,.53-.84,1.26-.56,2.19,.22,.75,.69,1.07,1.39,.96,.7-.11,2.93-.88,6.67-2.3,5.05-1.81,8.01-2.95,8.88-3.42,.41-.33,.74-.4,1-.22,.26,.18,.5,.66,.74,1.46l.65,2.17-7.44,3.14c-4.94,1.99-7.71,3.37-8.28,4.15-.44,.74-.4,1.96,.1,3.66,.51,1.7,1.31,3.28,2.4,4.73,1.22,1.36,2.91,2.14,5.08,2.33,2.17,.19,5.37-.19,9.6-1.15,3.24-.71,5.65-1.49,7.23-2.31,2.06-.92,2.74-1.96,2.04-3.12-.26-.53-.84-.74-1.75-.62Z"/>
      <path class="cls-1" d="M177.14,79.76c2.24-1.02,3.53-2.41,3.87-4.18,.35-1.76-.27-3.51-1.85-5.23-1.39-1.52-3.1-2.37-5.11-2.53-2.02-.16-3.71,.41-5.08,1.71-1.82,1.62-2.78,3.5-2.88,5.61-.09,2.12,.72,3.6,2.43,4.46,2.81,1.44,5.68,1.49,8.62,.16Zm-5.76-6.98c.9-.5,1.99-.65,3.27-.48,1.28,.18,2.05,.66,2.31,1.45,.3,.84-.11,1.58-1.23,2.21-1.12,.63-2.34,.77-3.63,.42-1.35-.3-2.09-.77-2.21-1.41-.12-.64,.38-1.37,1.49-2.2Z"/>
      <path class="cls-1" d="M187.54,69.33c-.17,3.84-.2,6.48-.09,7.92s.35,2.34,.72,2.7c.42,.36,.78,.55,1.07,.56,1.17,.05,2.02-2.22,2.56-6.83,.31-2.57,.58-4.1,.82-4.6,.24-.5,.85-.78,1.83-.83,1.22-.14,1.98,.32,2.28,1.38,.29,1.06,.39,3.85,.29,8.38,.03,2.63,.12,4.38,.28,5.24,.16,.86,.48,1.37,.96,1.54,.48,.07,.88-.12,1.2-.57,.31-.45,.57-1.34,.78-2.67s.36-3.19,.46-5.57c.11-2.38,.22-5.5,.34-9.34,.1-5.55,.09-9.25-.02-11.11-.12-1.86-.39-3.23-.84-4.13-.69-1.05-1.52-1.72-2.51-2.01-.99-.29-1.67-.02-2.04,.79-.27,.62-.07,1.6,.6,2.95,.54,1.1,.79,3.1,.76,6.02-.08,1.9-.23,3.11-.45,3.63s-.67,.87-1.36,1.04c-.98,.2-1.84-.06-2.56-.77-.72-.71-1.06-1.61-1.02-2.68,.06-1.36-.21-2.72-.81-4.09-.6-1.37-1.24-2.06-1.92-2.09-1.85-.08-2.41,1.06-1.69,3.43,.52,1.39,.64,5.29,.36,11.71Z"/>
      <path class="cls-1" d="M196.59,96.11c-1.58-1.63-2.51-2.72-2.78-3.26-.27-.55-.21-1.35,.18-2.4,.65-1.43,.97-2.75,.98-3.94,0-1.19-.31-1.8-.94-1.83-1.41-.06-2.47,1.28-3.17,4.03-.46,1.54-1.75,3.84-3.88,6.92-1.51,2.22-2.5,3.49-2.98,3.81-.48,.32-1.09,.2-1.85-.37-.85-.57-1.83-1.61-2.93-3.12-.69-.96-1.04-1.63-1.04-2.02,0-.39,.27-.99,.85-1.79,.82-1.04,1.43-2.24,1.8-3.61s.44-2.43,.18-3.17c-.26-.69-.6-1.1-1.01-1.21-.41-.12-.87,.05-1.38,.49s-.97,1.14-1.41,2.09c-1.45,3.05-2.62,5.22-3.5,6.5-.88,1.28-2.21,2.68-3.98,4.21-2.33,1.99-4.07,3.28-5.21,3.86-1.05,.54-1.37,1.22-.97,2.04,.4,.82,1.24,1.26,2.5,1.32,.83,.04,1.65-.2,2.48-.7,.83-.5,1.9-1.48,3.23-2.93l3.23-3.73,2.51,2.67c1.68,1.68,2.49,3.25,2.42,4.71l.02,1.17c.5,2.02,2.51,1.04,6.05-2.95,2.2-2.34,3.69-4.08,4.47-5.21,.42-.62,.88-.75,1.41-.41,.52,.34,1.88,1.53,4.08,3.58,1.16,1.22,2.18,2.17,3.05,2.84,.87,.67,1.63,1.15,2.28,1.45,.64,.3,1.18,.37,1.6,.22,.42-.15,.74-.47,.96-.95,.33-.91-.21-1.91-1.62-2.99-1.46-1.09-3.33-2.85-5.61-5.29Z"/>
      <path class="cls-1" d="M176.37,59.12l3.56-1.16c1.83-.6,2.9-1.12,3.21-1.54,.56-.66-.15-1.03-2.14-1.12-1.75-.08-3.42-.88-5.01-2.41-.84-.77-1.62-1.39-2.33-1.86-1.85-1.06-2.81-.83-2.88,.68-.04,.88,.9,2.33,2.8,4.36l2.79,3.05Z"/>
      <path class="cls-1" d="M173.64,63.93c6.31,.06,9.76-.14,10.37-.6,.36-.52,.51-1.03,.43-1.52-.08-.49-.41-.91-1.01-1.25-.59-.34-1.26-.5-1.99-.49-1.95,.06-5.17,.06-9.65,.01-3.26-.09-5.44-.07-6.54,.08-1.1,.15-1.76,.46-1.98,.94-.43,.86-.38,1.52,.13,1.98,.51,.51,3.92,.79,10.23,.85Z"/>
      <path class="cls-1" d="M216.08,91.59c2.47,.62,4.69,.56,6.68-.15,1.98-.72,3.28-1.95,3.9-3.69,.48-1.07,.91-1.65,1.28-1.75s1.37,.03,2.99,.4c1.44,.46,2.41,.75,2.9,.87,.5,.13,1.07,.37,1.72,.72,.65,.36,.99,.62,1.04,.79,.04,.17,.05,.59,.02,1.25s-.15,1.22-.37,1.69c-.22,.47-.6,1.33-1.14,2.58-1.06,2.26-3.01,7.12-5.85,14.58-1.56,4.25-2.45,6.88-2.67,7.88-.23,1-.06,1.68,.48,2.03,1.83,1.11,3.15-.28,3.96-4.18,.49-2.25,2.72-7.76,6.7-16.52,2.98-6.53,5.35-12.43,7.11-17.69,1.76-5.26,2.62-9.01,2.58-11.24-.07-2.14-.8-4.04-2.2-5.7-1.4-1.66-2.61-2.07-3.62-1.24-.44,.36-.13,1.53,.93,3.5l1.56,3.03-2.73,7.71-2.7,7.64-5.29-1.25-5.31-1.18-2.47-3.74c-1.63-2.54-2.76-3.81-3.37-3.83-.54-.09-1.67,.34-3.39,1.28-1.73,.94-3.44,2.02-5.14,3.25-1.7,1.23-2.84,2.21-3.4,2.94-1.47,2.11-1.67,4.09-.6,5.95,1.08,1.85,3.21,3.21,6.41,4.09Zm-2.65-7.6c.18-.5,.78-1.18,1.8-2.03,1.02-.85,2.09-1.6,3.2-2.24,1.1-.64,1.81-.91,2.14-.79,.18,.06,.87,.75,2.06,2.05,1.99,2.41,1.9,4.47-.25,6.18-2.06,1.59-4.48,1.56-7.25-.09-.99-.56-1.59-1.03-1.79-1.41-.2-.38-.17-.94,.09-1.67Z"/>
      <path class="cls-1" d="M242.87,103.43c-.57-1.25-1.14-1.96-1.72-2.13s-1.22,.21-1.94,1.13c-.78,1-.58,2.27,.58,3.83,1.16,1.55,3.94,4.23,8.33,8.01,3.11,2.67,5.56,4.64,7.37,5.92,1.81,1.28,3.8,2.43,5.97,3.44,3.65,1.8,7.02,4.02,10.08,6.65,2.21,1.91,3.61,2.98,4.17,3.2,.57,.22,1.16,.06,1.78-.51,.84-.76,.95-1.54,.34-2.33-.62-.79-2.73-2.71-6.33-5.77-3.99-3.35-6.01-5.11-6.07-5.28l2.88-2.75c1.92-1.83,3.19-3.78,3.8-5.83,.6-2.12,.19-3.06-1.23-2.81-.46-.05-1.36,.79-2.7,2.52-1.94,2.5-3.88,4.38-5.8,5.66-2.55,1.77-4.13,1.93-4.72,.48-.1-.51,.71-2.19,2.44-5.04,.78-1.24,1.36-2.18,1.73-2.82,.37-.64,.69-1.22,.95-1.76,.26-.54,.37-.95,.31-1.24-.05-.29-.17-.56-.34-.82-.17-.26-.45-.53-.83-.83-.69-.54-1.19-.75-1.51-.62-.31,.12-.87,.86-1.68,2.21-1.03,1.72-2.01,3.49-2.93,5.31l-1.33,2.66-5.3-4.13c-3.57-2.78-5.68-4.91-6.31-6.39Z"/>
      <path class="cls-1" d="M268.59,105.33c.84,.9,1.62,1.42,2.35,1.55,.73,.14,2.29,0,4.71-.4,2.24-.35,3.77-.72,4.57-1.11,.8-.39,1.63-1.15,2.5-2.26,1.2-1.54,1.78-2.92,1.75-4.14-.03-1.23-.74-2.9-2.11-5.02-1.23-1.82-2.04-2.87-2.42-3.13-.38-.26-1.42-.5-3.11-.71s-3.35,.06-4.97,.8-2.99,1.82-4.1,3.24c-1.08,1.38-1.54,3.24-1.39,5.58,.15,2.34,.89,4.21,2.21,5.6Zm2.25-9.07c.9-1.15,2.08-1.71,3.56-1.67,1.48,.04,2.9,.65,4.26,1.84,.99,.95,1.55,1.65,1.69,2.1,.14,.45,.02,1.05-.38,1.79-.67,1.02-2.02,1.79-4.06,2.3-2.03,.51-3.49,.43-4.38-.26-.85-.66-1.35-1.62-1.5-2.88s.11-2.34,.8-3.22Z"/>
      <path class="cls-1" d="M117.77,211.28c-3.55,.42-7.01,1.33-10.3,2.7-2.44,1.02-4.78,2.29-6.97,3.8-1.14,.78-1.43,2.34-.65,3.48,.48,.71,1.27,1.08,2.06,1.08,.49,0,.98-.14,1.41-.44,1.9-1.31,3.94-2.42,6.07-3.3,2.86-1.19,5.87-1.98,8.96-2.35,1.37-.16,2.35-1.41,2.19-2.78-.16-1.37-1.38-2.35-2.78-2.19Z"/>
      <path class="cls-1" d="M163.64,209.39c-2.41-1.31-6.27-2.85-11.21-2.8-2.88,.04-5.71,.61-8.41,1.72-1.28,.53-1.89,1.99-1.36,3.26,.53,1.28,1.99,1.89,3.26,1.36,2.11-.87,4.31-1.32,6.56-1.35,3.8-.03,6.88,1.17,8.76,2.2,.38,.21,.79,.3,1.19,.3,.89,0,1.75-.47,2.2-1.31,.66-1.21,.21-2.73-1-3.39Z"/>
      <path class="cls-1" d="M130.33,223.07c-6.55,1.84-9.03,7.75-9.46,8.92-.28,.75-.18,1.59,.27,2.26,2.1,3.14,4.52,6.09,7.18,8.77,2.39,2.41,5.01,4.62,7.78,6.58,.43,.3,.93,.46,1.44,.46,.17,0,.33-.02,.5-.05,.68-.14,1.27-.55,1.63-1.13,1.54-2.49,2.84-5.15,3.85-7.9,1.3-3.55,2.14-7.26,2.49-11.03,.06-.65-.13-1.29-.54-1.79-3.71-4.62-9.65-6.61-15.12-5.08Zm8.48,16.18c-.58,1.58-1.27,3.12-2.05,4.62-1.72-1.36-3.36-2.82-4.9-4.37-2.11-2.12-4.05-4.44-5.78-6.89,.79-1.45,2.51-3.85,5.61-4.72,3.24-.91,6.76,.13,9.22,2.66-.36,2.97-1.06,5.9-2.09,8.71Z"/>
      <path class="cls-1" d="M316.99,225.57c5.39-15.42,8.33-31.98,8.33-49.21,0-82.42-67.05-149.48-149.47-149.48S26.38,93.94,26.38,176.36c0,27.45,7.5,54.29,21.7,77.62,.95,1.57,1.94,3.1,2.95,4.63,.03,.05,.06,.09,.09,.13,24.59,37.11,65.03,61.76,109.27,66.31,5.1,.53,10.3,.79,15.46,.79,41.33,0,78.8-16.87,105.88-44.08,.33-.21,.62-.49,.82-.84,1.87-1.91,3.69-3.87,5.46-5.87,.33-.23,.59-.53,.77-.87,3.38-3.9,6.55-7.97,9.52-12.2,.28-.26,.5-.57,.63-.91,7.36-10.67,13.37-22.33,17.79-34.75,.12-.23,.21-.47,.26-.73ZM31.38,176.36C31.38,96.69,96.19,31.88,175.86,31.88s144.47,64.81,144.47,144.48c0,13.81-1.95,27.18-5.59,39.84-1.64-4.3-3.97-8.39-6.94-12.09-1.41-4.46-4.9-12.29-12.95-18.06-3.97-2.85-8.62-4.84-13.51-5.8-1.16-1.51-2.77-3.37-4.85-5.17,.26-.04,.53-.08,.79-.11,1.37-.17,2.35-1.41,2.18-2.78-.17-1.37-1.41-2.35-2.78-2.18-2.02,.24-4,.63-5.94,1.14-1.52-.79-3.17-1.47-4.96-1.96-1.09-.3-2.15-.5-3.19-.65,1.15-1.33,2.33-2.38,3.37-3.15,1.11-.83,1.33-2.39,.51-3.5-.82-1.11-2.39-1.34-3.5-.51-2.01,1.5-4.47,3.81-6.48,7.06-6.13,.69-10.91,3.56-13.5,5.49-3.95-.08-9.54,.74-15.21,4.68-8.4,5.83-12.12,15.2-13.56,20.07-3.27,1.31-11.15,5.4-13.87,15.05-3.4,12.06,2.67,26.55,13.59,32.88,1.29,4.7,4.63,13.71,12.22,19.91-.14,.21-.28,.42-.4,.63-2.57,4.4-2.79,11.06,1,13.58,.99,.66,2.21,.99,3.61,.99,1.11,0,2.33-.21,3.64-.62,4.24-1.33,9.64-4.96,11.99-8.91,5.33-.76,9.61-2.95,11.75-4.23,2.36,1.42,5.62,2.83,9.64,3.28,1.05,2.53,2.59,4.76,4.53,6.5,1.15,1.03,2.53,1.96,4,2.74-22.46,21.6-51.88,36.01-84.51,39.52,1.68-3.63,3.17-7.36,4.43-11.14,11.21-33.63,2.82-65.08-3.17-80.84-5.09-13.38-20.58-54.1-56.12-63.26-6.05-1.56-12.41-2.13-18.9-1.71-.68-1.41-1.47-2.74-2.38-3.96-1.27-1.7-2.76-3.24-4.43-4.57-.84-.67-2.01-.73-2.92-.15-.06,.04-.12,.07-.17,.11l.04-.43c.08-.99-.43-1.93-1.3-2.41-11.14-6.01-27.02-5.56-41.44,1.16-.67,.32-1.17,.91-1.36,1.63-.19,.72-.04,1.49,.39,2.09,2.74,3.81,5.9,7.24,9.38,10.19,.84,.71,2.04,.79,2.96,.2,.58-.37,1.17-.75,1.76-1.12l-.54,2.12c-.27,1.04,.15,2.13,1.05,2.71,1.64,1.08,3.35,2.06,5.11,2.96-5.5,3.32-10.42,7.3-14.37,11.69-11.62,12.9-14.03,28.53-16.59,45.07l-.18,1.15c-.89,5.74-1.48,11.55-1.77,17.34-12.75-21.94-19.49-46.93-19.49-72.48Zm255.62,92.2c-.54-.83-1.14-1.67-1.79-2.51,1.19-.15,2.73-.42,4.5-.84-.89,1.13-1.79,2.25-2.71,3.36Zm-7.33,8.16c-1.65-.67-3.2-1.61-4.42-2.7-.91-.81-1.69-1.76-2.33-2.83,.78-.1,1.53-.24,2.25-.41,.05-.01,.09-.02,.14-.03,.67-.16,1.32-.34,1.94-.54,.09-.03,.19-.05,.28-.08,.11-.04,.21-.08,.32-.12,.16-.06,.32-.12,.48-.18,.54-.2,1.07-.42,1.6-.66,.02,0,.03-.02,.05-.02,.32-.15,.65-.29,.96-.45,1.04,1.29,1.93,2.6,2.63,3.84-1.27,1.42-2.57,2.82-3.89,4.19Zm15.17-18.52c-4.88,2.17-9.34,2.81-11.09,2.98-.5,.05-.98,.25-1.37,.58-.5,.42-1.26,1.01-2.23,1.62,0,0,0,0,0,0-.32,.2-.65,.4-.98,.58-.03,.02-.06,.03-.09,.05-.28,.16-.57,.3-.86,.44-.07,.03-.14,.06-.2,.1-.67,.31-1.36,.59-2.06,.83-2.15,.72-4.41,1.04-6.69,.98-4.53-.18-7.98-1.97-10.08-3.44-.88-.61-2.04-.6-2.91,.03-.52,.38-12.72,9.09-24.86,1.22-.12-.1-.26-.19-.4-.27-8.56-5.82-11.73-16.43-12.5-19.58-.17-.7-.63-1.29-1.27-1.62-10.37-5.4-14.62-18.65-12.08-27.64,2.55-9.04,10.9-11.82,11.85-12.11,.83-.25,1.47-.92,1.69-1.76,.98-3.75,4.09-13.06,11.93-18.5,4.97-3.45,9.83-3.95,13.02-3.75,.63,.04,1.23-.16,1.71-.54,1.55-1.24,4.6-3.31,8.6-4.41-.79,2.56-1.17,5.22-1.09,7.94,.03,.96,.6,1.82,1.48,2.21,.33,.15,.68,.22,1.02,.22,.58,0,1.15-.2,1.61-.59,2.38-2,4.98-3.71,7.75-5.08,1.74-.86,3.54-1.58,5.39-2.17,3.73,2.35,6.33,5.44,7.78,7.45,.39,.54,.97,.9,1.62,1.01,4.5,.75,8.8,2.52,12.42,5.12,7.14,5.12,10.09,12.17,11.22,15.92,.1,.32,.25,.61,.46,.87,4.35,5.29,7.2,11.49,8.33,17.95-4.26,11.92-10.04,23.12-17.11,33.36Zm-64.77,11.46c.06-.11,.15-.21,.22-.32,3.1,1.72,6.18,2.61,9.1,2.95-1.93,1.71-4.54,3.31-6.88,4.04-1.8,.56-2.74,.4-2.99,.24-.8-.54-1.06-4.15,.55-6.91Zm33.41-95.9c-.32,.15-.65,.29-.97,.45-1.4,.69-2.76,1.46-4.08,2.31,.13-.52,.28-1.03,.45-1.54,.2-.59,.43-1.16,.67-1.71,1.26,.02,2.58,.18,3.93,.49Zm-149.43-2.79c-6.26-5.36-13.48-9.36-21.46-11.87-1.31-.41-2.72,.32-3.13,1.63-.41,1.32,.32,2.72,1.63,3.13,7.33,2.31,13.97,5.97,19.71,10.9,.34,.29,.65,.6,.98,.9-2.82-.18-5.63-.51-8.39-1.02-3.75-.69-8.17-1.6-13.17-3.6-2.53-1.02-4.98-2.25-7.3-3.65l1.67-6.49c.26-.99-.12-2.04-.95-2.65-.83-.6-1.95-.64-2.81-.08-1.84,1.17-3.68,2.35-5.52,3.52-1.88-1.71-3.65-3.59-5.28-5.6,11.56-4.62,23.68-4.92,32.63-.77l-.31,3.77c-.08,.95,.39,1.85,1.2,2.35,.81,.49,1.83,.48,2.63-.03l.95-.61c.63-.4,1.27-.81,1.9-1.21,.81,.77,1.55,1.61,2.21,2.49,1.01,1.37,1.83,2.85,2.5,4.52,.67,1.68,1.12,3.49,1.41,5.39-.37-.33-.72-.68-1.1-1.01Zm46.86,149.09c-42.55-4.37-81.45-27.98-105.25-63.55,.04-8.07,.68-16.22,1.93-24.26l.18-1.15c2.54-16.47,4.74-30.7,15.36-42.49,4.35-4.83,9.98-9.13,16.33-12.51,5.44,2.05,10.33,2.95,13.02,3.45,4.48,.83,9.07,1.25,13.68,1.25,.22,0,.43,0,.65,0,1.42,1.65,2.76,3.38,3.98,5.19,.48,.72,1.27,1.11,2.08,1.11,.48,0,.96-.14,1.39-.42,1.15-.77,1.45-2.32,.68-3.47-1.37-2.03-2.87-3.96-4.46-5.81,.08-3.34-.25-6.51-1.03-9.45,5.45-.21,10.77,.33,15.85,1.64,8.17,2.11,33.04,8.52,52.7,60.2,5.76,15.13,13.82,45.33,3.1,77.48-1.5,4.51-3.36,8.95-5.49,13.22-3.22,.22-6.47,.34-9.74,.34-4.99,0-10.02-.26-14.95-.77Z"/>
      <path class="cls-1" d="M274.62,211.95c-1.55-1.06-3.21-1.97-4.93-2.69-2.32-.97-4.77-1.61-7.29-1.91-1.38-.16-2.62,.82-2.78,2.19-.16,1.37,.82,2.62,2.19,2.78,2.05,.24,4.05,.77,5.95,1.56,1.41,.59,2.76,1.32,4.03,2.19,.43,.3,.92,.44,1.41,.44,.8,0,1.58-.38,2.06-1.08,.78-1.14,.49-2.69-.65-3.48Z"/>
      <path class="cls-1" d="M245.94,208.63c.53-1.28-.08-2.74-1.36-3.26-1.94-.8-3.98-1.22-6.06-1.24-.06,0-.13,0-.19,0-3.44,0-6.19,1.09-7.89,2.02-1.21,.66-1.66,2.18-1,3.39,.45,.83,1.31,1.31,2.2,1.31,.4,0,.81-.1,1.19-.3,1.22-.66,3.17-1.47,5.64-1.41,1.45,.02,2.87,.31,4.22,.87,1.28,.53,2.74-.08,3.26-1.36Z"/>
      <path class="cls-1" d="M252.54,214.85c-5.03-.88-8.69,2.16-9.37,2.78-.61,.56-.91,1.38-.79,2.2,.26,1.8,.79,3.55,1.57,5.19,.84,1.77,1.97,3.39,3.34,4.8,.48,.49,1.13,.76,1.79,.76,.28,0,.56-.05,.83-.14,2.83-1,5.33-2.69,7.23-4.9,1.02-1.19,1.87-2.52,2.52-3.96,.38-.84,.27-1.82-.3-2.55-.79-1.03-3.05-3.51-6.82-4.17Zm.8,7.43c-1.13,1.31-2.41,2.19-3.56,2.78-.51-.68-.95-1.42-1.32-2.19-.35-.74-.64-1.52-.84-2.31,.93-.53,2.37-1.08,4.06-.79,1.12,.2,2,.7,2.63,1.2-.29,.46-.62,.9-.97,1.31Z"/>
    </g>
  </g>
</svg>