<?xml version="1.0" encoding="UTF-8"?>
<svg id="_레이어_2" data-name="레이어 2" xmlns="http://www.w3.org/2000/svg" viewBox="0 0 1466.11 1267.62">
  <defs>
    <style>
      .cls-1 {
        fill: #fff;
      }

      .cls-2 {
        fill: #24aa83;
      }

      .cls-3 {
        fill: #636465;
        stroke: #000;
        stroke-miterlimit: 10;
        stroke-width: .23px;
      }
    </style>
  </defs>
  <g id="Layer_1" data-name="Layer 1">
    <g>
      <polygon class="cls-1" points="652.72 144.25 732.71 5.86 818.23 144.82 818.23 148.9 738.87 285.87 652.72 144.25"/>
      <path d="M732.79,11.71l82.44,133.96v2.43l-76.42,131.9-82.6-135.78L732.79,11.71m-.16-11.71l-83.4,144.29,89.7,147.46,82.29-142.04v-5.74L732.63,0h0Z"/>
    </g>
    <polygon class="cls-3" points="738.93 291.75 738.93 429.45 821.23 286.24 821.23 149.71 738.93 291.75 738.93 291.75"/>
    <g>
      <polygon points="738.48 293.42 738.48 429.33 296.13 1199.13 176.21 1263.96 738.48 293.42"/>
      <path d="M738.03,295.1v134.11l-442.23,769.59-118.41,64L738.03,295.1m.9-3.35L175.02,1265.11l121.44-65.64L738.93,429.45v-137.7h0Z"/>
    </g>
    <g>
      <polygon class="cls-1" points="1301.03 1264.62 825.68 438.58 903.06 299.14 1460.91 1264.62 1301.03 1264.62"/>
      <path d="M903.11,305.23l552.6,956.39h-152.95l-79.81-138.69L829.13,438.56l73.99-133.33m-.11-12.18l-80.77,145.56,395.52,687.31h0l81.54,141.7h166.81L903.01,293.05h0Z"/>
    </g>
    <polygon class="cls-3" points="822.24 438.61 821.23 440.43 821.23 593.77 1086.61 1052.24 1217.75 1125.92 822.24 438.61"/>
    <g>
      <polygon points="458.1 1125.47 576.86 1053.39 1087.74 1053.39 1216.03 1125.47 458.1 1125.47"/>
      <path d="M1087.62,1053.84l126.69,71.18H459.71l117.28-71.18h510.64m-1.01-1.6l.41,.7h-510.29l-120.25,72.98h761.27l-131.14-73.68h0Z"/>
    </g>
    <g>
      <g>
        <polygon class="cls-2" points=".78 1267.17 649.24 145.17 738.41 291.76 174.7 1264.77 170.27 1267.17 .78 1267.17"/>
        <path d="M649.25,146.06l88.63,145.7L174.37,1264.44l-4.22,2.28H1.56L649.25,146.06m-.02-1.76L0,1267.62H170.38l4.64-2.51L738.93,291.75l-89.7-147.46h0Z"/>
      </g>
      <g>
        <polygon class="cls-2" points="453.66 1267.17 453.66 1128.16 456.61 1126.37 1217.49 1126.37 1298.52 1267.17 453.66 1267.17"/>
        <path d="M1217.23,1126.82l80.51,139.9H454.11v-138.3l2.63-1.6h760.5m.52-.9H456.49l-3.28,1.99v139.71h846.09l-81.54-141.7h0Z"/>
      </g>
    </g>
  </g>
</svg>