<?xml version="1.0" encoding="UTF-8"?>
<svg id="_레이어_2" data-name="레이어 2" xmlns="http://www.w3.org/2000/svg" viewBox="0 0 206.09 113.22">
  <defs>
    <style>
      .cls-1 {
        fill: #1d2087;
      }
    </style>
  </defs>
  <g id="_레이어_1-2" data-name="레이어 1">
    <g>
      <path class="cls-1" d="M87.43,26.32c-3.27,1.46-8.1-.09-10.79-3.45l-6.59-8.25c-2.69-3.37-7.52-4.91-10.79-3.45L0,37.65l24.63,30.84,59.26-26.48c3.27-1.46,8.1,.09,10.79,3.45l6.59,8.25c2.69,3.37,7.52,4.91,10.79,3.45l58.89-26.32L146.32,0l-58.89,26.32Z"/>
      <path class="cls-1" d="M111.78,67.6l-6.59-8.25c-2.69-3.37-7.52-4.91-10.79-3.45l-59.26,26.48,24.63,30.84,59.26-26.48c3.27-1.46,8.1,.09,10.79,3.45l6.59,8.25c2.69,3.37,7.52,4.91,10.79,3.45l58.89-26.32-24.63-30.84-58.89,26.32c-3.27,1.46-8.1-.09-10.79-3.45Z"/>
    </g>
  </g>
</svg>