<?xml version="1.0" encoding="UTF-8"?>
<svg id="_레이어_2" data-name="레이어 2" xmlns="http://www.w3.org/2000/svg" viewBox="0 0 252.77 275.42">
  <defs>
    <style>
      .cls-1 {
        fill: #870000;
      }
    </style>
  </defs>
  <g id="_레이어_1-2" data-name="레이어 1">
    <path class="cls-1" d="M252.61,254.55c-4.79-36.96-23.75-54.54-38.81-62.78-22.79-12.46-53.25-12.15-81.92,.66-7.98,3.3-16.68,5.17-25.81,5.17-38.1,0-69.09-31.68-69.09-70.62S67.97,56.36,106.07,56.36s69.09,31.68,69.09,70.62c0,14.05-4.08,27.13-11.03,38.15,12.9-1.18,26.26,.3,39.05,5,5.73-13.22,8.97-27.8,8.97-43.14,0-31.92-13.85-60.56-35.69-80.28l-5.77-42.46c-.54-4-5.42-5.66-8.29-2.83l-23.59,23.27c-10.32-3.41-21.31-5.3-32.73-5.3s-22.41,1.89-32.72,5.3L49.76,1.42c-2.87-2.83-7.75-1.17-8.29,2.83l-5.76,42.45C13.86,66.41,0,95.05,0,126.98c0,59.33,47.58,107.6,106.07,107.6,12.57,0,24.58-2.35,35.77-6.44,1.2-.29,2.39-.71,3.54-1.25,.61-.29,1.24-.5,1.85-.77,.2-.09,.4-.16,.6-.25,17.65-7.65,35.91-8.37,48.21-1.64,10.95,5.99,17.65,17.79,19.89,35.09,1.21,9.32,9.16,16.11,18.31,16.11,.79,0,1.59-.05,2.4-.15,10.13-1.31,17.27-10.59,15.96-20.71Z"/>
  </g>
</svg>