<?xml version="1.0" encoding="UTF-8"?>
<svg id="_레이어_2" data-name="레이어 2" xmlns="http://www.w3.org/2000/svg" viewBox="0 0 359.31 152.63">
  <defs>
    <style>
      .cls-1 {
        fill: #023f33;
      }
    </style>
  </defs>
  <g id="Layer_1" data-name="Layer 1">
    <g>
      <path class="cls-1" d="M189.46,14.22v10.02c0,.82,.55,1.54,1.34,1.75l154.55,41.46c.53,.14,.89,.62,.89,1.17v69.73c0,.67-.54,1.21-1.21,1.21H14.27c-.67,0-1.21-.54-1.21-1.21V68.63c0-.55,.37-1.02,.89-1.17L178.23,23.19c.79-.21,1.34-.93,1.34-1.75V10.61c0-.82-.55-1.54-1.34-1.75L145.25,.04c-.77-.21-1.52,.37-1.52,1.17V12.04c0,.82,.55,1.53,1.34,1.75l6.77,1.84c.59,.16,.59,1,0,1.17l-1.57,.43v.03l-9.38,2.52h0S1.34,57.24,1.34,57.24c-.79,.21-1.34,.93-1.34,1.75v91.82c0,1,.81,1.81,1.81,1.81H357.5c1,0,1.81-.81,1.81-1.81V58.99c0-.82-.55-1.54-1.34-1.75L191.74,12.47c-1.15-.31-2.28,.56-2.28,1.75Z"/>
      <g>
        <path class="cls-1" d="M241.73,124.68v-48.62c0-1,.81-1.81,1.81-1.81h9.49c1,0,1.81,.81,1.81,1.81v36.76c0,.33,.27,.6,.6,.6h17.13c1,0,1.81,.81,1.81,1.81v9.44c0,1-.81,1.81-1.81,1.81h-29.04c-1,0-1.81-.81-1.81-1.81Z"/>
        <path class="cls-1" d="M269.91,74.19h12.01c.66,0,1.27,.36,1.58,.93l9.91,17.9c.23,.41,.82,.42,1.06,0l10.02-17.91c.32-.57,.93-.93,1.58-.93h11.97c.92,0,1.51,1,1.05,1.8l-18.67,33.11v15.63c0,1-.81,1.81-1.81,1.81h-9.43c-1,0-1.81-.81-1.81-1.81v-15.71l-18.52-33.04c-.45-.81,.13-1.8,1.05-1.8Z"/>
        <path class="cls-1" d="M156.8,85.49v-9.43c0-1-.81-1.81-1.81-1.81h-29.04c-1,0-1.81,.81-1.81,1.81v48.61c0,1,.81,1.81,1.81,1.81h9.44c1,0,1.81-.81,1.81-1.81v-17.19c0-.33,.27-.6,.6-.6h15.55c1,0,1.81-.81,1.81-1.81v-9.44c0-1-.81-1.81-1.81-1.81h-15.55c-.33,0-.6-.27-.6-.6v-5.31c0-.33,.27-.6,.6-.6h17.18c1,0,1.81-.81,1.81-1.81Z"/>
        <path class="cls-1" d="M117.61,85.47v-9.41c0-1-.81-1.81-1.81-1.81h-29.06c-1,0-1.81,.81-1.81,1.81v48.62c0,1,.81,1.81,1.81,1.81h29.06c1,0,1.81-.81,1.81-1.81v-9.45c0-1-.81-1.81-1.81-1.81h-17.19c-.33,0-.6-.27-.6-.6l-.05-5.33c0-.34,.27-.61,.6-.61h15.6c1,0,1.81-.81,1.81-1.81v-9.44c0-1-.81-1.81-1.81-1.81h-15.55c-.33,0-.6-.27-.6-.6v-5.33c0-.33,.27-.6,.6-.6h17.18c1,0,1.81-.81,1.81-1.81Z"/>
        <path class="cls-1" d="M196.01,85.47v-9.41c0-1-.81-1.81-1.81-1.81h-29.06c-1,0-1.81,.81-1.81,1.81v48.62c0,1,.81,1.81,1.81,1.81h29.06c1,0,1.81-.81,1.81-1.81v-9.45c0-1-.81-1.81-1.81-1.81h-17.19c-.33,0-.6-.27-.6-.6l-.05-5.33c0-.34,.27-.61,.6-.61h15.6c1,0,1.81-.81,1.81-1.81v-9.44c0-1-.81-1.81-1.81-1.81h-15.55c-.33,0-.6-.27-.6-.6v-5.33c0-.33,.27-.6,.6-.6h17.18c1,0,1.81-.81,1.81-1.81Z"/>
        <path class="cls-1" d="M235.21,85.47v-9.41c0-1-.81-1.81-1.81-1.81h-29.06c-1,0-1.81,.81-1.81,1.81v48.62c0,1,.81,1.81,1.81,1.81h29.06c1,0,1.81-.81,1.81-1.81v-9.45c0-1-.81-1.81-1.81-1.81h-17.19c-.33,0-.6-.27-.6-.6l-.05-5.33c0-.34,.27-.61,.6-.61h15.6c1,0,1.81-.81,1.81-1.81v-9.44c0-1-.81-1.81-1.81-1.81h-15.55c-.33,0-.6-.27-.6-.6v-5.33c0-.33,.27-.6,.6-.6h17.18c1,0,1.81-.81,1.81-1.81Z"/>
        <path class="cls-1" d="M64.04,105.95c-.11-.33,.07-.69,.41-.77,2.5-.65,12.03-3.87,12.33-15.33,.23-9.02-7-15.61-16.02-15.61h-19.75c-1,0-1.81,.81-1.81,1.81v48.61c0,1,.81,1.81,1.81,1.81h9.4c1,0,1.81-.81,1.81-1.81v-12.98c0-.34,.47-.42,.58-.11,1.6,4.29,6.76,14.91,18.52,14.91,2.28,0,4.19-.26,5.63-.56,.84-.18,1.45-.91,1.45-1.78v-10.11c0-.81-.78-1.38-1.55-1.15-.91,.26-1.86,.41-2.85,.41-4.63,0-8.56-3.08-9.95-7.35Zm-4.5-11.3h-6.68c-.33,0-.6-.27-.6-.6v-6.99c0-.33,.27-.6,.6-.6h6.87s3.98,.1,3.98,4.08c0,0,.03,4.11-4.17,4.11Z"/>
      </g>
      <g>
        <path class="cls-1" d="M241.73,124.68v-48.62c0-1,.81-1.81,1.81-1.81h9.49c1,0,1.81,.81,1.81,1.81v36.76c0,.33,.27,.6,.6,.6h17.13c1,0,1.81,.81,1.81,1.81v9.44c0,1-.81,1.81-1.81,1.81h-29.04c-1,0-1.81-.81-1.81-1.81Z"/>
        <path class="cls-1" d="M269.91,74.19h12.01c.66,0,1.27,.36,1.58,.93l9.91,17.9c.23,.41,.82,.42,1.06,0l10.02-17.91c.32-.57,.93-.93,1.58-.93h11.97c.92,0,1.51,1,1.05,1.8l-18.67,33.11v15.63c0,1-.81,1.81-1.81,1.81h-9.43c-1,0-1.81-.81-1.81-1.81v-15.71l-18.52-33.04c-.45-.81,.13-1.8,1.05-1.8Z"/>
        <path class="cls-1" d="M156.8,85.49v-9.43c0-1-.81-1.81-1.81-1.81h-29.04c-1,0-1.81,.81-1.81,1.81v48.61c0,1,.81,1.81,1.81,1.81h9.44c1,0,1.81-.81,1.81-1.81v-17.19c0-.33,.27-.6,.6-.6h15.55c1,0,1.81-.81,1.81-1.81v-9.44c0-1-.81-1.81-1.81-1.81h-15.55c-.33,0-.6-.27-.6-.6v-5.31c0-.33,.27-.6,.6-.6h17.18c1,0,1.81-.81,1.81-1.81Z"/>
        <path class="cls-1" d="M117.61,85.47v-9.41c0-1-.81-1.81-1.81-1.81h-29.06c-1,0-1.81,.81-1.81,1.81v48.62c0,1,.81,1.81,1.81,1.81h29.06c1,0,1.81-.81,1.81-1.81v-9.45c0-1-.81-1.81-1.81-1.81h-17.19c-.33,0-.6-.27-.6-.6l-.05-5.33c0-.34,.27-.61,.6-.61h15.6c1,0,1.81-.81,1.81-1.81v-9.44c0-1-.81-1.81-1.81-1.81h-15.55c-.33,0-.6-.27-.6-.6v-5.33c0-.33,.27-.6,.6-.6h17.18c1,0,1.81-.81,1.81-1.81Z"/>
        <path class="cls-1" d="M196.01,85.47v-9.41c0-1-.81-1.81-1.81-1.81h-29.06c-1,0-1.81,.81-1.81,1.81v48.62c0,1,.81,1.81,1.81,1.81h29.06c1,0,1.81-.81,1.81-1.81v-9.45c0-1-.81-1.81-1.81-1.81h-17.19c-.33,0-.6-.27-.6-.6l-.05-5.33c0-.34,.27-.61,.6-.61h15.6c1,0,1.81-.81,1.81-1.81v-9.44c0-1-.81-1.81-1.81-1.81h-15.55c-.33,0-.6-.27-.6-.6v-5.33c0-.33,.27-.6,.6-.6h17.18c1,0,1.81-.81,1.81-1.81Z"/>
        <path class="cls-1" d="M235.21,85.47v-9.41c0-1-.81-1.81-1.81-1.81h-29.06c-1,0-1.81,.81-1.81,1.81v48.62c0,1,.81,1.81,1.81,1.81h29.06c1,0,1.81-.81,1.81-1.81v-9.45c0-1-.81-1.81-1.81-1.81h-17.19c-.33,0-.6-.27-.6-.6l-.05-5.33c0-.34,.27-.61,.6-.61h15.6c1,0,1.81-.81,1.81-1.81v-9.44c0-1-.81-1.81-1.81-1.81h-15.55c-.33,0-.6-.27-.6-.6v-5.33c0-.33,.27-.6,.6-.6h17.18c1,0,1.81-.81,1.81-1.81Z"/>
      </g>
    </g>
  </g>
</svg>