<svg width="133" height="30" viewBox="0 0 133 30" fill="none" xmlns="http://www.w3.org/2000/svg">
<g clip-path="url(#clip0_2_540)">
<path d="M13.8088 15.7903L24.8978 26.7201L24.924 26.7459C26.311 28.1112 28.0774 29.0407 30 29.4169C31.9227 29.7931 33.9154 29.5991 35.7262 28.8595C37.5371 28.1199 39.0849 26.8678 40.1741 25.2615C41.2633 23.6552 41.8451 21.7668 41.8458 19.8347V9.76243C41.8458 7.17192 40.8017 4.6875 38.9432 2.85572C37.0848 1.02395 34.5642 -0.00512695 31.9359 -0.00512695C29.3076 -0.00512695 26.787 1.02395 24.9285 2.85572C23.0701 4.6875 22.026 7.17192 22.026 9.76243V14.6695C22.026 15.1489 22.2193 15.6088 22.5632 15.9478C22.9072 16.2868 23.3737 16.4773 23.8602 16.4773C24.3467 16.4773 24.8132 16.2868 25.1572 15.9478C25.5011 15.6088 25.6944 15.1489 25.6944 14.6695V9.76243C25.7415 8.16104 26.42 6.64079 27.5858 5.52448C28.7517 4.40817 30.3131 3.78373 31.9385 3.78373C33.5639 3.78373 35.1253 4.40817 36.2912 5.52448C37.457 6.64079 38.1356 8.16104 38.1826 9.76243V19.8347C38.1844 21.0527 37.8193 22.2438 37.1335 23.2571C36.4478 24.2703 35.4724 25.0601 34.3308 25.5265C33.1893 25.9928 31.933 26.1147 30.7211 25.8766C29.5092 25.6385 28.3963 25.0512 27.5233 24.1891L16.5182 13.342L16.4763 13.2955C16.4617 13.2726 16.4441 13.2517 16.4239 13.2335C14.7495 11.644 12.5502 10.7023 10.2288 10.5808C7.90735 10.4594 5.61925 11.1664 3.78363 12.5724L3.64215 12.6033V9.76243C3.64145 8.5449 4.00732 7.35454 4.69342 6.34207C5.37953 5.32961 6.355 4.54057 7.49635 4.07488C8.6377 3.60919 9.89359 3.48779 11.105 3.72604C12.3164 3.96429 13.4288 4.55147 14.3014 5.41326C14.4718 5.58114 14.674 5.71432 14.8965 5.80518C15.1191 5.89603 15.3576 5.94279 15.5985 5.94279C15.8394 5.94279 16.0779 5.89603 16.3004 5.80518C16.523 5.71432 16.7252 5.58114 16.8955 5.41326C17.0658 5.24537 17.2009 5.04607 17.2931 4.82672C17.3853 4.60737 17.4328 4.37228 17.4328 4.13486C17.4328 3.89744 17.3853 3.66233 17.2931 3.44298C17.2009 3.22363 17.0658 3.02433 16.8955 2.85645C15.5086 1.49324 13.7432 0.565429 11.8219 0.190085C9.90059 -0.18526 7.90954 0.00866376 6.09995 0.747409C4.29036 1.48615 2.74331 2.73662 1.65396 4.34103C0.564607 5.94543 -0.0182138 7.8319 -0.0209961 9.76243V20.093C-0.0188267 22.1627 0.666145 24.1756 1.93059 25.8279C3.19503 27.4803 4.97034 28.6826 6.98874 29.2534C9.00714 29.8242 11.1591 29.7326 13.1201 28.9924C15.081 28.2522 16.7446 26.9035 17.8598 25.1498C17.9985 24.9487 18.0947 24.7221 18.1424 24.4835C18.1902 24.2449 18.1887 23.9992 18.1379 23.7612C18.0871 23.5232 17.9881 23.2978 17.8469 23.0984C17.7056 22.899 17.525 22.7297 17.3158 22.6007C17.1066 22.4717 16.8732 22.3857 16.6295 22.3477C16.3857 22.3097 16.1367 22.3206 15.8974 22.3796C15.658 22.4387 15.4332 22.5448 15.2365 22.6915C15.0397 22.8382 14.8749 23.0226 14.7521 23.2335C14.0963 24.2683 13.1322 25.0783 11.9917 25.5528C10.8513 26.0273 9.58995 26.1432 8.38015 25.8845C7.17036 25.6259 6.07109 25.0054 5.23251 24.1079C4.39394 23.2104 3.85697 22.0795 3.69497 20.8699C3.53297 19.6602 3.75385 18.4308 4.32743 17.3495C4.901 16.2682 5.79928 15.3879 6.89956 14.8287C7.99984 14.2696 9.24843 14.0589 10.4748 14.2254C11.7011 14.392 12.8453 14.9277 13.7512 15.7593L13.7774 15.7903H13.8088Z" fill="#15346E"/>
<path d="M63.7146 23.2335C63.229 23.2335 62.7633 23.4233 62.4194 23.7612C62.0756 24.0991 61.8818 24.5576 61.8804 25.0362V27.2779C61.8804 27.7574 62.0736 28.2173 62.4176 28.5563C62.7616 28.8953 63.2281 29.0858 63.7146 29.0858C64.201 29.0858 64.6676 28.8953 65.0115 28.5563C65.3555 28.2173 65.5488 27.7574 65.5488 27.2779V25.0362C65.5474 24.5576 65.3535 24.0991 65.0097 23.7612C64.6659 23.4233 64.2001 23.2335 63.7146 23.2335Z" fill="#15346E"/>
<path d="M63.7146 0.470093C63.2281 0.470093 62.7616 0.660557 62.4176 0.999595C62.0736 1.33863 61.8804 1.79847 61.8804 2.27794V10.9711C61.8804 11.4506 62.0736 11.9104 62.4176 12.2495C62.7616 12.5885 63.2281 12.779 63.7146 12.779C64.201 12.779 64.6676 12.5885 65.0115 12.2495C65.3555 11.9104 65.5488 11.4506 65.5488 10.9711V2.27277C65.5474 1.7942 65.3535 1.33569 65.0097 0.997766C64.6659 0.659845 64.2001 0.470091 63.7146 0.470093Z" fill="#15346E"/>
<path d="M73.6665 21.7924H84.9861C85.0261 21.7976 85.0667 21.7976 85.1067 21.7924C85.3471 21.7857 85.5838 21.7322 85.8032 21.635C86.0226 21.5378 86.2203 21.3988 86.3849 21.2259C86.5495 21.0531 86.6779 20.8499 86.7625 20.6279C86.8471 20.406 86.8863 20.1698 86.878 19.9329C86.705 14.5506 82.6331 10.4907 77.403 10.4907C75.637 10.5076 73.9057 10.9757 72.3781 11.8494C70.8506 12.723 69.5791 13.9723 68.688 15.4752C68.5682 15.681 68.4908 15.908 68.4602 16.1434C68.4296 16.3787 68.4464 16.6176 68.5097 16.8465C68.573 17.0754 68.6815 17.2898 68.829 17.4773C68.9765 17.6647 69.1601 17.8217 69.3693 17.9391C69.7912 18.1762 70.2914 18.2386 70.76 18.1128C71.2286 17.9869 71.6275 17.6829 71.869 17.2676C72.4347 16.313 73.242 15.5195 74.212 14.9645C75.182 14.4095 76.2815 14.1121 77.403 14.1013C78.637 14.0876 79.8414 14.4733 80.8316 15.1992C81.8217 15.9251 82.543 16.9511 82.8847 18.1198V18.1818H73.6665C73.1801 18.1818 72.7135 18.3723 72.3695 18.7113C72.0256 19.0504 71.8323 19.5102 71.8323 19.9897C71.8323 20.4692 72.0256 20.929 72.3695 21.268C72.7135 21.6071 73.1801 21.7975 73.6665 21.7975V21.7924Z" fill="#15346E"/>
<path d="M46.5309 0.470033C46.0453 0.471401 45.5801 0.662474 45.2373 1.00136C44.8944 1.34025 44.7019 1.79931 44.7019 2.27788V27.2779C44.7019 27.7573 44.8951 28.2172 45.2391 28.5562C45.5831 28.8953 46.0496 29.0857 46.5361 29.0857C47.0226 29.0857 47.4891 28.8953 47.8331 28.5562C48.177 28.2172 48.3703 27.7573 48.3703 27.2779V20.2531C48.3687 19.0388 48.7324 17.8514 49.4153 16.8408C50.0982 15.8302 51.0698 15.0418 52.2072 14.5752C53.3446 14.1087 54.5967 13.9849 55.8055 14.2196C57.0142 14.4542 58.1252 15.0368 58.9981 15.8936L70.0714 26.8078L70.1029 26.8337L70.1343 26.8595C71.063 27.8437 72.1869 28.6293 73.4363 29.1677C74.6858 29.7062 76.0341 29.9859 77.3977 29.9897C78.7025 29.9928 79.9949 29.74 81.1996 29.2461C82.4043 28.7521 83.4972 28.0269 84.4148 27.1126C84.6761 26.8603 84.8548 26.5368 84.9282 26.1836C85.0015 25.8305 84.966 25.4638 84.8263 25.1306C84.6866 24.7975 84.4491 24.5131 84.1441 24.314C83.8392 24.1149 83.4809 24.0103 83.1152 24.0134C82.8747 24.0111 82.6362 24.0555 82.4131 24.1441C82.1901 24.2328 81.9871 24.3639 81.8155 24.5299C81.2164 25.1246 80.5 25.592 79.7105 25.9033C78.9211 26.2146 78.0753 26.3632 77.2254 26.34C76.3754 26.3167 75.5393 26.1221 74.7686 25.7682C73.9979 25.4143 73.3089 24.9085 72.7441 24.282L72.6655 24.2097C72.6457 24.197 72.628 24.1813 72.6131 24.1632L61.5765 13.2851C59.8584 11.6078 57.5759 10.6098 55.1612 10.4803C52.7466 10.3508 50.3676 11.0989 48.4751 12.5826L48.3913 12.6498V2.27271C48.3906 2.03355 48.3418 1.79689 48.2477 1.57645C48.1535 1.35601 48.016 1.15617 47.8429 0.988501C47.6699 0.820833 47.4648 0.688668 47.2396 0.59967C47.0144 0.510672 46.7735 0.466616 46.5309 0.470033Z" fill="#15346E"/>
<path d="M115.963 27.5259C115.967 27.6368 115.979 27.7473 116 27.8564C116.004 27.8923 116.015 27.9272 116.031 27.9598V28.0166V28.0734L116.073 28.1974C116.073 28.2387 116.115 28.28 116.136 28.3213V28.3678C116.148 28.3833 116.157 28.4008 116.162 28.4195L116.214 28.5073C116.353 28.7121 116.531 28.8877 116.738 29.0238L116.833 29.0755L116.885 29.1013H116.932C116.971 29.124 117.012 29.1446 117.053 29.1633L117.194 29.2046H117.242H117.299L117.394 29.2356C117.513 29.2579 117.634 29.27 117.755 29.2717H131.124C131.61 29.2717 132.077 29.0813 132.421 28.7422C132.765 28.4032 132.958 27.9433 132.958 27.4639C132.958 26.9844 132.765 26.5246 132.421 26.1855C132.077 25.8465 131.61 25.656 131.124 25.656H122.22L122.309 25.5734L132.465 15.5631C132.549 15.4768 132.624 15.3835 132.691 15.2841C132.71 15.2589 132.726 15.2311 132.738 15.2015L132.769 15.1447V15.1085C132.796 15.0659 132.819 15.0209 132.837 14.9742C132.854 14.9354 132.868 14.8958 132.879 14.8554V14.7934C132.877 14.7763 132.877 14.7589 132.879 14.7418C132.882 14.7074 132.882 14.6729 132.879 14.6385C132.9 14.5276 132.912 14.4154 132.916 14.3027V14.2666C132.912 14.1539 132.9 14.0417 132.879 13.9308C132.882 13.8965 132.882 13.8619 132.879 13.8275C132.877 13.8086 132.877 13.7896 132.879 13.7707V13.7139C132.869 13.6733 132.855 13.6335 132.837 13.5951C132.82 13.5479 132.797 13.5028 132.769 13.4608V13.4195L132.738 13.3678C132.726 13.3365 132.71 13.307 132.691 13.28C132.555 13.0736 132.376 12.8977 132.167 12.7635L132.072 12.7067L132.02 12.6808H131.973L131.852 12.6188L131.7 12.5724H131.658H131.601L131.512 12.5414C131.392 12.5208 131.271 12.5104 131.15 12.5104H117.923C117.436 12.5104 116.97 12.7008 116.626 13.0399C116.282 13.3789 116.089 13.8388 116.089 14.3182C116.089 14.7977 116.282 15.2575 116.626 15.5966C116.97 15.9356 117.436 16.1261 117.923 16.1261H126.743L126.654 16.2139L116.503 26.2242C116.416 26.307 116.339 26.3988 116.272 26.498L116.22 26.5858C116.214 26.6044 116.205 26.6219 116.193 26.6374V26.6891C116.168 26.7265 116.147 26.7663 116.131 26.8079L116.089 26.9319V26.9887V27.0455C116.073 27.0781 116.062 27.1129 116.057 27.1488C116.036 27.2596 116.024 27.3719 116.021 27.4845L115.963 27.5259Z" fill="#15346E"/>
<path d="M90.7402 11.0537C90.2537 11.0537 89.7872 11.2442 89.4432 11.5832C89.0992 11.9223 88.906 12.3821 88.906 12.8616V27.5103C88.906 27.9898 89.0992 28.4496 89.4432 28.7887C89.7872 29.1277 90.2537 29.3182 90.7402 29.3182C91.2267 29.3182 91.6932 29.1277 92.0372 28.7887C92.3811 28.4496 92.5744 27.9898 92.5744 27.5103V22.6601C92.5772 20.9203 93.28 19.2525 94.5287 18.0228C95.7773 16.793 97.4699 16.1016 99.2351 16.1002C99.7216 16.1002 100.188 15.9097 100.532 15.5707C100.876 15.2317 101.069 14.7718 101.069 14.2923C101.069 13.8129 100.876 13.353 100.532 13.014C100.188 12.675 99.7216 12.4845 99.2351 12.4845C96.8337 12.488 94.5083 13.3153 92.6582 14.8244L92.5744 14.8915V12.8616C92.5744 12.3821 92.3811 11.9223 92.0372 11.5832C91.6932 11.2442 91.2267 11.0537 90.7402 11.0537Z" fill="#15346E"/>
<path d="M104.077 6.00208C103.591 6.00208 103.124 6.19254 102.78 6.53158C102.436 6.87062 102.243 7.33045 102.243 7.80993V23.3058C102.245 24.8945 102.885 26.4177 104.025 27.5411C105.165 28.6645 106.71 29.2962 108.322 29.2975C110.848 29.2975 112.431 27.7479 113.699 26.4721L113.861 26.312C114.031 26.1445 114.166 25.9456 114.258 25.7266C114.35 25.5077 114.398 25.2731 114.398 25.0362C114.398 24.7992 114.35 24.5646 114.258 24.3457C114.166 24.1268 114.031 23.9279 113.861 23.7603C113.691 23.5928 113.49 23.4599 113.268 23.3692C113.046 23.2786 112.807 23.2319 112.567 23.2319C112.327 23.2319 112.089 23.2786 111.867 23.3692C111.644 23.4599 111.443 23.5928 111.273 23.7603L111.105 23.9205C109.999 25.0155 109.276 25.6818 108.322 25.6818C107.683 25.6818 107.07 25.4315 106.618 24.9859C106.166 24.5403 105.912 23.936 105.912 23.3058V16.1312H112.567C113.054 16.1312 113.52 15.9407 113.864 15.6017C114.208 15.2627 114.401 14.8028 114.401 14.3233C114.401 13.8439 114.208 13.3841 113.864 13.045C113.52 12.706 113.054 12.5155 112.567 12.5155H105.912V7.80476C105.91 7.32618 105.716 6.86767 105.372 6.52975C105.029 6.19183 104.563 6.00207 104.077 6.00208Z" fill="#15346E"/>
</g>
<defs>
<clipPath id="clip0_2_540">
<rect width="133" height="30" fill="white"/>
</clipPath>
</defs>
</svg>
