<?xml version="1.0" encoding="UTF-8"?>
<svg id="_레이어_2" data-name="레이어 2" xmlns="http://www.w3.org/2000/svg" viewBox="0 0 410.09 68.18">
  <defs>
    <style>
      .cls-1 {
        fill: #0c3580;
      }
    </style>
  </defs>
  <g id="_레이어_1-2" data-name="레이어 1">
    <g>
      <path class="cls-1" d="M345.06,65.44c0,.78-.34,1.52-.92,2.04-.51,.45-1.16,.68-1.83,.68-.11,0-.24,0-.35-.01-6.28-.8-11.81-3.59-16.48-8.31-5.62-5.62-8.47-12.52-8.47-20.51V3c0-.78,.26-1.39,.82-1.96,.39-.48,1.07-.8,1.88-.8s1.37,.24,1.94,.78c.57,.6,.82,1.19,.82,1.98V24.8h20.47c.75,0,1.43,.29,1.87,.8,.53,.46,.81,1.11,.81,1.89s-.25,1.41-.81,1.95c-.37,.49-1.08,.81-1.87,.81h-20.47v9.09c0,6.5,2.3,12.13,6.85,16.68,3.84,3.84,8.34,6.11,13.39,6.74,1.33,.16,2.34,1.32,2.34,2.69Z"/>
      <path class="cls-1" d="M410.09,40.88v24.69c0,.72-.26,1.33-.81,1.88-.47,.47-1.09,.72-1.79,.72-.73,0-1.42-.26-1.88-.72-.51-.63-.72-1.22-.72-1.88v-24.69c0-6.01-2.18-11.27-6.45-15.63-4.43-4.34-9.51-6.45-15.56-6.45s-11.27,2.18-15.55,6.45c-4.28,4.37-6.45,9.63-6.45,15.63v24.69c0,.66-.21,1.26-.66,1.8l-.14,.14c-1.12,.9-2.49,.9-3.61,0l-.14-.14c-.45-.55-.66-1.14-.66-1.8V2.6c0-.65,.21-1.24,.66-1.8l.14-.12c1.12-.9,2.49-.9,3.61,0l.14,.12c.45,.56,.66,1.16,.66,1.8V24.93c5.47-7.52,12.86-11.34,22-11.34,7.46,0,13.93,2.69,19.23,7.98,5.3,5.31,7.98,11.8,7.98,19.3Z"/>
      <path class="cls-1" d="M54.89,52.26c0,4.43-1.58,8.21-4.69,11.24-3.15,3.13-6.84,4.66-11.3,4.66H15.99c-4.4,0-8.21-1.57-11.32-4.68-3.1-3.02-4.68-6.8-4.68-11.23,0-.8,.31-1.49,.87-1.94,.5-.5,1.09-.75,1.89-.75s1.43,.29,1.97,.81c.45,.46,.72,1.14,.72,1.88,0,2.94,1.02,5.36,3.13,7.39,2.04,2.05,4.54,3.08,7.41,3.08h22.91c2.87,0,5.36-1.03,7.4-3.07,2.11-2.04,3.15-4.46,3.15-7.4s-1.06-5.31-3.13-7.31c-2-2.08-4.43-3.07-7.41-3.07H15.52c-4.04,0-7.59-1.58-10.52-4.7-2.88-3.13-4.34-6.9-4.34-11.22s1.45-8.16,4.34-11.22c2.86-3.11,6.4-4.69,10.52-4.69h23.62c4.12,0,7.66,1.58,10.53,4.7,2.87,3.03,4.33,6.82,4.33,11.21,0,.76-.27,1.43-.81,1.95-.63,.52-1.22,.73-1.95,.73-.67,0-1.34-.24-1.89-.67l-.12-.12c-.48-.61-.75-1.27-.75-1.89,0-2.98-.91-5.41-2.76-7.42-1.8-2.03-4-3.05-6.58-3.05H15.52c-2.57,0-4.78,1.02-6.57,3.03-1.87,2.03-2.77,4.45-2.77,7.44s.93,5.36,2.76,7.35c1.77,2.05,3.9,3.03,6.58,3.03h23.38c4.32,0,8.12,1.58,11.3,4.68h0c3.11,3.11,4.69,6.89,4.69,11.24Z"/>
      <path class="cls-1" d="M184.83,10.86c-.56-.56-1.16-.81-1.95-.81s-1.49,.31-1.88,.81c-.56,.55-.81,1.16-.81,1.95v11.02c-5.88-9.15-14.16-13.78-24.66-13.78-8.11,0-14.84,2.8-20.59,8.54-5.67,5.6-8.56,12.5-8.56,20.52s2.89,14.91,8.56,20.51c5.76,5.75,12.49,8.54,20.59,8.54,10.5,0,18.78-4.63,24.66-13.78v11.02c0,.8,.25,1.41,.75,1.89,.45,.56,1.14,.87,1.94,.87s1.39-.25,1.95-.81c.56-.55,.81-1.16,.81-1.95V12.81c0-.8-.25-1.41-.81-1.95Zm-29.3,4.63c6.53,0,12.01,2.28,16.75,6.94,4.61,4.61,6.94,10.22,6.94,16.69s-2.33,12.06-6.93,16.66c-4.75,4.68-10.24,6.95-16.76,6.95s-12.01-2.28-16.76-6.94c-4.6-4.6-6.94-10.22-6.94-16.68s2.34-12.08,6.94-16.68c4.75-4.68,10.24-6.95,16.76-6.95Z"/>
      <path class="cls-1" d="M119.04,41.08c.57-.56,.83-1.17,.83-1.96,0-8.02-2.89-14.92-8.56-20.52-5.67-5.67-12.64-8.54-20.67-8.54s-15.09,2.87-20.76,8.54c-5.68,5.6-8.56,12.5-8.56,20.52,0,3,.41,5.88,1.22,8.58,.53,1.77,1.24,3.47,2.11,5.05,1.32,2.45,3.07,4.76,5.22,6.88,5.63,5.63,12.57,8.52,20.62,8.54h.65c1.09,0,2.28-.01,3.43-.15,3.88-.47,7.52-1.7,10.82-3.67l.14-.07c2.06-1.26,3.95-2.75,5.8-4.56,2.86-2.81,5.04-6.01,6.49-9.53,.29-.72,.26-1.53-.06-2.24-.32-.7-.93-1.24-1.69-1.49-1.37-.42-2.86,.26-3.41,1.57-1.27,3.17-3.27,6.04-5.93,8.54-3.74,3.42-7.9,5.38-12.7,6.02-1.12,.14-2.28,.15-3.27,.15h-.26c-6.22-.02-11.45-2.08-16.01-6.23-.83-.78-1.6-1.6-2.31-2.45l-.68-.85c-.56-.76-1.09-1.57-1.58-2.44-.11-.2-.22-.4-.34-.6l-.09-.2c-.16-.3-.31-.58-.45-.9-1.06-2.21-1.77-4.64-2.09-7.19h50.13c.86,0,1.44-.4,1.94-.81Zm-28.39-25.58c6.19,0,11.45,2.04,16.06,6.24,4.23,3.92,6.75,8.83,7.54,14.61h-47.27c.78-5.78,3.31-10.7,7.54-14.61,4.59-4.2,9.86-6.24,16.14-6.24Z"/>
      <rect class="cls-1" x="299.48" y="0" width="5.43" height="68.16" rx="2.25" ry="2.25"/>
      <path class="cls-1" d="M220.91,68.16c-1.94,0-3.87-.62-5.48-1.85l-16.51-12.56c-1.23-.94-1.47-2.69-.53-3.92h0c.94-1.23,2.69-1.47,3.92-.53l16.51,12.56c1.1,.84,2.6,.94,3.8,.26l15.47-8.77c2.76-1.56,6.18-1.56,8.94,0l15.47,8.77c1.2,.68,2.69,.58,3.8-.26l16.51-12.56c1.23-.94,2.99-.7,3.92,.53h0c.93,1.23,.7,2.99-.53,3.92l-16.51,12.56c-2.89,2.2-6.79,2.46-9.95,.67l-15.47-8.77c-1.05-.6-2.36-.6-3.41,0l-15.47,8.77c-1.39,.79-2.93,1.18-4.47,1.18Z"/>
      <path class="cls-1" d="M220.91,42.17c-1.94,0-3.87-.62-5.48-1.85l-16.51-12.56c-1.23-.94-1.47-2.69-.53-3.92h0c.94-1.23,2.69-1.47,3.92-.53l16.51,12.56c1.1,.84,2.6,.94,3.8,.26l15.47-8.77c2.76-1.56,6.18-1.56,8.94,0l15.47,8.77c1.2,.68,2.69,.58,3.8-.26l16.51-12.56c1.23-.94,2.99-.7,3.92,.53h0c.93,1.23,.7,2.99-.53,3.92l-16.51,12.56c-2.89,2.2-6.79,2.46-9.95,.67l-15.47-8.77c-1.05-.6-2.36-.6-3.41,0l-15.47,8.77c-1.39,.79-2.93,1.18-4.47,1.18Z"/>
    </g>
  </g>
</svg>