<?xml version="1.0" encoding="utf-8"?>
<!-- Generator: Adobe Illustrator 27.0.0, SVG Export Plug-In . SVG Version: 6.00 Build 0)  -->
<svg version="1.1" xmlns="http://www.w3.org/2000/svg" xmlns:xlink="http://www.w3.org/1999/xlink" x="0px" y="0px"
	 viewBox="0 0 23 23" style="enable-background:new 0 0 23 23;" xml:space="preserve">
<g id="레이어_2">
</g>
<g id="레이어_1">
	<path d="M19.8,0H3.2C2.4,0,1.5,0.3,0.9,0.9C0.3,1.5,0,2.3,0,3.2v16.6C0,21.6,1.4,23,3.2,23h16.6c1.8,0,3.2-1.4,3.2-3.2V3.2
		C23,1.4,21.6,0,19.8,0z M2.1,2.1c0.3-0.3,0.7-0.5,1.1-0.5h16.6c0.8,0,1.5,0.7,1.5,1.5v1.9c-0.1,0-0.2-0.1-0.2-0.1c0,0-0.1,0-0.1,0
		c-0.2-0.1-0.3-0.1-0.5-0.2c0,0-0.1,0-0.1,0c-0.2,0-0.4-0.1-0.6-0.1H3.2C2.4,4.7,1.7,4,1.7,3.2C1.7,2.8,1.8,2.4,2.1,2.1z M18.3,13.5
		c0.1-0.3,0.3-0.6,0.4-0.7c0.1-0.1,0.3-0.3,0.5-0.3c0,0,0,0,0,0c0.1,0,0.2-0.1,0.2-0.1c0.1,0,0.2,0,0.3,0h1.5v3.1h-1.5
		c-0.8,0-1.5-0.7-1.5-1.5C18.3,13.7,18.3,13.6,18.3,13.5z M21.3,19.8c0,0.8-0.7,1.5-1.5,1.5H3.2c-0.8,0-1.5-0.7-1.5-1.5V6
		c0.1,0,0.2,0.1,0.2,0.1c0,0,0.1,0,0.1,0c0.2,0.1,0.3,0.1,0.5,0.2c0,0,0.1,0,0.1,0c0.2,0,0.4,0.1,0.6,0.1h16.6
		c0.8,0,1.5,0.7,1.5,1.5v2.7h-1.5c-0.9,0-1.7,0.3-2.3,0.9c-0.6,0.6-0.9,1.4-0.9,2.3c0,1.8,1.4,3.2,3.2,3.2h1.5V19.8L21.3,19.8z"/>
</g>
</svg>
