<?xml version="1.0" encoding="utf-8"?>
<!-- Generator: Adobe Illustrator 27.0.0, SVG Export Plug-In . SVG Version: 6.00 Build 0)  -->
<svg version="1.1" id="레이어_1" xmlns="http://www.w3.org/2000/svg" xmlns:xlink="http://www.w3.org/1999/xlink" x="0px"
	 y="0px" viewBox="0 0 28 28" style="enable-background:new 0 0 28 28;" xml:space="preserve">
<style type="text/css">
	.st0{clip-path:url(#SVGID_00000166649301070586538020000002902298367112206987_);}
	.st1{fill:#231815;}
</style>
<g>
	<defs>
		<rect id="SVGID_1_" x="0.2" y="0.2" width="27.5" height="27.5"/>
	</defs>
	<clipPath id="SVGID_00000070110849509429646650000002260729198761630107_">
		<use xlink:href="#SVGID_1_"  style="overflow:visible;"/>
	</clipPath>
	<g style="clip-path:url(#SVGID_00000070110849509429646650000002260729198761630107_);">
		<path class="st1" d="M23.9,0.2H4.1C2,0.2,0.2,2,0.2,4.1v19.8c0,2.1,1.7,3.8,3.8,3.8h19.8c2.1,0,3.8-1.7,3.8-3.8V4.1
			C27.8,2,26,0.2,23.9,0.2z M25.8,4.1V13h-4.9c2.4-1.3,4.1-4.5,1.9-6.8c-1.9-1.9-5-1.2-6.9,0.4c-0.3,0.3-0.6,0.6-0.9,1V2.2h8.9
			C24.9,2.2,25.8,3.1,25.8,4.1z M15.5,12.4c-0.1-0.5-0.2-0.9-0.4-1.4c0.2-0.3,0.3-0.5,0.4-0.7c0.6-1,1.3-2,2.2-2.7
			c1.4-1,4.5-0.8,3.9,1.6C21.1,11.8,17.6,12,15.5,12.4L15.5,12.4z M12.5,12.4c-2.1-0.4-4.6-0.5-5.8-2.3C6.2,9.3,6,8.1,6.9,7.4
			C7.7,6.9,8.7,7,9.5,7.3c1.1,0.4,2,1.5,2.6,2.5c0.1,0.2,0.5,0.7,0.8,1.2C12.7,11.5,12.5,11.9,12.5,12.4z M4.1,2.2H13v5.4
			c0,0-0.1-0.1-0.1-0.2c-1.6-2-4.6-3.3-7-1.8C3.2,7.4,4.2,11,6.5,12.6c0.2,0.2,0.4,0.3,0.7,0.4H2.2V4.1C2.2,3.1,3.1,2.2,4.1,2.2z
			 M2.2,23.9V15h7.6c-0.2,0.1-0.4,0.2-0.5,0.4c-1.9,1.7-3.3,3.9-4,6.3c-0.4,1.2,1.6,1.8,1.9,0.5c0.8-2.6,2.5-4.9,4.8-6.4
			c0.3-0.2,0.6-0.4,1-0.6v10.5H4.1C3.1,25.8,2.2,24.9,2.2,23.9z M23.9,25.8H15V15.3c0,0,0.1,0,0.1,0c2.8,1.4,4.9,3.9,5.7,6.9
			c0.3,1.2,2.3,0.7,1.9-0.5c-0.8-2.6-2.4-5-4.5-6.7h7.5v8.9C25.8,24.9,24.9,25.8,23.9,25.8L23.9,25.8z"/>
	</g>
</g>
</svg>
