<?xml version="1.0" encoding="utf-8"?>
<!-- Generator: Adobe Illustrator 27.0.0, SVG Export Plug-In . SVG Version: 6.00 Build 0)  -->
<svg version="1.1" id="레이어_1" xmlns="http://www.w3.org/2000/svg" xmlns:xlink="http://www.w3.org/1999/xlink" x="0px"
	 y="0px" viewBox="0 0 22 23" style="enable-background:new 0 0 22 23;" xml:space="preserve">
<path d="M3.1,23c-0.4,0-1.7-0.2-2.5-1.3C0.1,21,0,20.3,0,19.8v-5.6c0-0.2,0.1-0.4,0.2-0.6L7,6.6c0.3-0.3,0.8-0.3,1.1,0l3.2,3.4L18,3
	c0.3-0.3,0.8-0.3,1.1,0c0.3,0.3,0.3,0.9,0,1.2l-7.2,7.6c-0.3,0.3-0.8,0.3-1.1,0L7.6,8.3l-5.9,6.2v5.2c0,0.2,0,0.6,0.3,0.9
	c0.4,0.6,1.1,0.6,1.2,0.7h15.8c0.1,0,0.6,0,1-0.5c0.4-0.4,0.4-0.9,0.4-1.1V3.2c0-0.2,0-0.6-0.4-1c-0.4-0.5-1-0.5-1.1-0.5H3.1
	C3,1.7,2.5,1.7,2.2,2C1.9,2.3,1.7,2.7,1.6,3.3v6.8c0,0.5-0.4,0.8-0.8,0.8c-0.4,0-0.8-0.4-0.8-0.8V3.2c0,0,0-0.1,0-0.1
	c0.1-1,0.5-1.8,1.1-2.4C1.9,0.1,2.8,0,3.1,0h15.8c0.3,0,1.5,0.1,2.3,1.1C21.9,1.9,22,2.7,22,3.2v16.6c0,0.4-0.1,1.4-0.9,2.2
	c-0.8,0.9-1.8,1-2.2,1L3.1,23L3.1,23z"/>
</svg>
